<svg width="599" height="147" viewBox="0 0 599 147" fill="none" xmlns="http://www.w3.org/2000/svg">
<path fill-rule="evenodd" clip-rule="evenodd" d="M111.58 72.2595L82.2739 21.5C73.4212 6.16667 51.2894 6.16667 42.4367 21.5L13.1306 72.2596C4.27795 87.5929 15.3438 106.76 33.0493 106.76H39.204V74.0745C39.204 61.2884 49.5692 50.9232 62.3553 50.9232C75.1414 50.9232 85.5065 61.2884 85.5065 74.0745V106.76H91.6614C109.367 106.76 120.433 87.5929 111.58 72.2595ZM85.5065 116.76H91.6614C117.065 116.76 132.942 89.2595 120.24 67.2595L90.9341 16.5C78.2324 -5.50003 46.4781 -5.49997 33.7764 16.5L4.47039 67.2596C-8.23132 89.2596 7.64588 116.76 33.0493 116.76H39.204V123.271C39.204 136.057 49.5692 146.422 62.3553 146.422C75.1414 146.422 85.5065 136.057 85.5065 123.271V116.76ZM75.5065 106.76V74.0745C75.5065 66.8112 69.6185 60.9232 62.3553 60.9232C55.0921 60.9232 49.204 66.8112 49.204 74.0745V106.76H75.5065ZM49.204 116.76H75.5065V123.271C75.5065 130.534 69.6185 136.422 62.3553 136.422C55.0921 136.422 49.204 130.534 49.204 123.271V116.76ZM292.034 109.201V35.6795H305.765V109.201H292.034ZM206.916 110.679C197.5 110.679 188.477 104.766 188.477 94.418C188.477 82.7885 199.462 77.7622 209.76 77.7622C214.075 77.7622 217.508 78.5507 221.529 80.029V76.9738C221.529 71.1591 218.195 67.0198 212.212 67.0198C207.995 67.0198 204.071 69.0894 202.6 73.2287L190.34 70.7649C192.596 60.8109 202.895 55.686 212.408 55.686C225.354 55.686 234.868 64.0632 234.868 77.6637V109.201H222.608L222.216 103.091C219.077 108.314 212.8 110.679 206.916 110.679ZM202.012 93.7281C202.012 98.163 206.425 100.036 210.25 100.036C216.233 100.036 221.529 95.8963 221.529 89.4902V88.9975C220.058 88.4061 218.587 87.9134 216.92 87.5191C215.252 87.2235 213.683 87.0264 212.016 87.0264C207.798 87.0264 202.012 88.5047 202.012 93.7281ZM158 57.1644H170.652L171.142 65.0487C173.693 59.5297 178.204 56.4745 184.285 56.4745C185.168 56.4745 186.148 56.573 187.031 56.6716C187.914 56.8687 188.797 57.0658 189.483 57.3615L188.012 70.962C186.541 70.2721 185.07 70.2721 183.5 70.2721C175.164 70.2721 171.731 75.8897 171.731 83.6755V109.201H158V57.1644ZM265.328 55.686C249.636 55.686 238.945 68.5967 238.945 83.577C238.945 98.8529 249.832 110.679 264.936 110.679C275.921 110.679 285.826 104.569 288.671 93.6295L275.626 91.0671C273.861 95.6006 269.84 98.2616 265.034 98.2616C256.893 98.2616 252.97 90.5743 252.97 83.3799C252.97 76.0868 256.893 68.1039 265.034 68.1039C269.84 68.1039 273.272 70.962 275.136 75.2984L288.18 72.736C285.434 61.895 276.117 55.686 265.328 55.686ZM335.674 55.686C320.178 55.686 309.879 68.301 309.879 83.0842C309.879 98.8529 320.766 110.679 336.36 110.679C346.07 110.679 356.172 105.85 359.899 96.4876L347.639 92.5454C345.089 96.6847 341.362 99.05 336.459 99.05C329.005 99.05 324.885 93.531 323.806 86.6321H360.978V83.1827C360.978 67.414 351.465 55.686 335.674 55.686ZM324.003 77.368C325.18 71.2576 329.103 66.3299 335.674 66.3299C342.245 66.3299 345.972 71.2576 346.855 77.368H324.003ZM360.295 57.1644H369.122V39.4245H382.853V57.1644H396.976V68.301H382.853V90.87C382.853 95.2064 384.422 98.6558 389.228 98.6558C391.778 98.6558 394.132 97.8674 396.485 96.8818L398.937 107.23C395.21 109.595 390.797 110.679 386.482 110.679C375.497 110.679 369.122 103.781 369.122 92.5454V68.301H360.295V57.1644ZM407.223 57.1644H398.396V68.301H407.223V92.5454C407.223 103.781 413.598 110.679 424.583 110.679C428.898 110.679 433.312 109.595 437.038 107.23L434.587 96.8818C432.233 97.8674 429.879 98.6558 427.329 98.6558C422.523 98.6558 420.954 95.2064 420.954 90.87V68.301H435.077V57.1644H420.954V39.4245H407.223V57.1644ZM437.304 83.0842C437.304 68.301 447.603 55.686 463.099 55.686C478.89 55.686 488.403 67.414 488.403 83.1827V86.6321H451.231C452.31 93.531 456.43 99.05 463.884 99.05C468.787 99.05 472.514 96.6847 475.064 92.5454L487.324 96.4876C483.597 105.85 473.495 110.679 463.785 110.679C448.191 110.679 437.304 98.8529 437.304 83.0842ZM463.099 66.3299C456.528 66.3299 452.605 71.2576 451.428 77.368H474.28C473.397 71.2576 469.67 66.3299 463.099 66.3299ZM504.673 57.1644H492.021V109.201H505.752V79.3391C505.752 72.9331 509.97 68.1039 516.345 68.1039C523.112 68.1039 525.564 73.7215 525.564 79.7333V109.201H539.295V77.9594C539.295 65.8371 533.116 55.686 520.366 55.686C514.089 55.686 508.302 58.347 505.066 63.8661L504.673 57.1644ZM545.351 35.6795H559.082V63.7675C563.005 58.5441 568.694 55.686 575.167 55.686C589.879 55.686 599 68.7938 599 82.8871C599 96.9804 589.585 110.679 574.382 110.679C567.909 110.679 562.025 107.92 558.396 102.401L558.003 109.201H545.351V35.6795ZM571.93 68.1039C563.79 68.1039 558.886 75.3969 558.886 83.1827C558.886 90.7714 563.692 98.2616 571.93 98.2616C580.071 98.2616 584.975 90.9686 584.975 83.1827C584.975 75.4955 580.267 68.1039 571.93 68.1039Z" fill="#FF5A5F"/>
</svg>
